<svg width="33" height="33" viewBox="0 0 33 33" fill="none" xmlns="http://www.w3.org/2000/svg">
<g clip-path="url(#clip0_578_2646)">
<path d="M-0.000244066 24.75V19.25C-0.000244066 15.4591 3.08388 12.375 6.87476 12.375H10.9998C11.7601 12.375 12.3748 12.991 12.3748 13.75C12.3748 14.509 11.7601 15.125 10.9998 15.125H6.87476C4.60051 15.125 2.74976 16.9757 2.74976 19.25V24.75C2.74976 25.509 2.13513 26.125 1.37476 26.125C0.614381 26.125 -0.000244066 25.509 -0.000244066 24.75ZM26.1248 12.375H21.9998C21.2394 12.375 20.6248 12.991 20.6248 13.75C20.6248 14.509 21.2394 15.125 21.9998 15.125H26.1248C28.399 15.125 30.2498 16.9757 30.2498 19.25V24.75C30.2498 25.509 30.8644 26.125 31.6248 26.125C32.3851 26.125 32.9998 25.509 32.9998 24.75V19.25C32.9998 15.4591 29.9156 12.375 26.1248 12.375ZM11.9581 7.172L15.1248 4.10712V23.375C15.1248 24.134 15.7394 24.75 16.4998 24.75C17.2601 24.75 17.8748 24.134 17.8748 23.375V4.08925L21.0414 7.17338C21.3081 7.43325 21.6533 7.56387 21.9998 7.56387C22.3586 7.56387 22.7161 7.425 22.9856 7.14862C23.515 6.60413 23.504 5.73375 22.9581 5.20438L18.444 0.807125C17.9078 0.2695 17.2038 0.001375 16.5011 0H16.4984C15.7971 0 15.0986 0.264 14.5706 0.792L10.0428 5.20162C9.49826 5.731 9.48726 6.60275 10.0153 7.14587C10.546 7.69037 11.415 7.70138 11.9595 7.172H11.9581ZM30.7063 29.5474C30.203 29.9998 29.5513 30.2486 28.8748 30.2486C27.6524 30.2486 26.4094 29.4429 26.045 28.4158C26.0368 28.3924 25.715 27.5124 24.7498 27.5124C23.7845 27.5124 23.4614 28.3924 23.4531 28.4158C23.0888 29.4443 21.8458 30.2486 20.6234 30.2486C19.401 30.2486 18.158 29.4429 17.7936 28.4158C17.7854 28.3924 17.476 27.5124 16.4984 27.5124C15.5208 27.5124 15.21 28.3924 15.2031 28.4158C14.8388 29.4443 13.5958 30.2486 12.3734 30.2486C11.151 30.2486 9.90801 29.4429 9.54363 28.4158C9.53538 28.3924 9.26726 27.5124 8.24838 27.5124C7.22951 27.5124 6.96001 28.3924 6.95176 28.4158C6.58738 29.4443 5.34438 30.2486 4.12201 30.2486C3.44551 30.2486 2.79376 29.9998 2.29051 29.5474C1.72813 29.04 0.860506 29.0867 0.349006 29.6505C-0.158369 30.2156 -0.111619 31.0846 0.453506 31.592C1.46138 32.4995 2.76488 32.9986 4.12201 32.9986C5.67576 32.9986 7.17588 32.34 8.24701 31.2991C9.31813 32.34 10.8183 32.9986 12.372 32.9986C13.9258 32.9986 15.4259 32.34 16.497 31.2991C17.5681 32.34 19.0683 32.9986 20.622 32.9986C22.1758 32.9986 23.6759 32.34 24.747 31.2991C25.8181 32.34 27.3183 32.9986 28.872 32.9986C30.2291 32.9986 31.5326 32.4995 32.5405 31.592C33.1056 31.0846 33.1524 30.2156 32.645 29.6505C32.1335 29.0854 31.2659 29.0386 30.7035 29.5474H30.7063Z" fill="#999999"/>
</g>
<defs>
<clipPath id="clip0_578_2646">
<rect width="33" height="33" fill="white"/>
</clipPath>
</defs>
</svg>
