<svg width="33" height="33" viewBox="0 0 33 33" fill="none" xmlns="http://www.w3.org/2000/svg">
<path d="M31.7914 12.4698L21.362 2.03903C20.0712 0.752018 18.3228 0.0292969 16.5 0.0292969C14.6772 0.0292969 12.9288 0.752018 11.638 2.03903L1.20864 12.4698C0.824226 12.8517 0.51945 13.3062 0.31198 13.8068C0.10451 14.3074 -0.0015268 14.8443 1.66093e-05 15.3862V28.8845C1.66093e-05 29.9786 0.434614 31.0278 1.2082 31.8013C1.98179 32.5749 3.031 33.0095 4.12502 33.0095H28.875C29.969 33.0095 31.0182 32.5749 31.7918 31.8013C32.5654 31.0278 33 29.9786 33 28.8845V15.3862C33.0016 14.8443 32.8955 14.3074 32.6881 13.8068C32.4806 13.3062 32.1758 12.8517 31.7914 12.4698ZM20.625 30.2595H12.375V24.8503C12.375 23.7563 12.8096 22.7071 13.5832 21.9335C14.3568 21.1599 15.406 20.7253 16.5 20.7253C17.594 20.7253 18.6432 21.1599 19.4168 21.9335C20.1904 22.7071 20.625 23.7563 20.625 24.8503V30.2595ZM30.25 28.8845C30.25 29.2492 30.1052 29.5989 29.8473 29.8568C29.5894 30.1147 29.2397 30.2595 28.875 30.2595H23.375V24.8503C23.375 23.0269 22.6507 21.2782 21.3614 19.9889C20.0721 18.6996 18.3234 17.9753 16.5 17.9753C14.6767 17.9753 12.928 18.6996 11.6387 19.9889C10.3493 21.2782 9.62502 23.0269 9.62502 24.8503V30.2595H4.12502C3.76034 30.2595 3.41061 30.1147 3.15274 29.8568C2.89488 29.5989 2.75002 29.2492 2.75002 28.8845V15.3862C2.75129 15.0218 2.89603 14.6725 3.15289 14.414L13.5823 3.98741C14.3574 3.21594 15.4064 2.78283 16.5 2.78283C17.5936 2.78283 18.6427 3.21594 19.4178 3.98741L29.8471 14.4182C30.103 14.6756 30.2477 15.0232 30.25 15.3862V28.8845Z" fill="#999999"/>
</svg>
