<svg width="29" height="32" viewBox="0 0 29 32" fill="none" xmlns="http://www.w3.org/2000/svg">
<path d="M14.5 32.0002C6.91825 32.0002 0.75 26.0188 0.75 18.6668C0.75 14.1895 2.81937 11.3882 5.92687 8.56017L9.29288 5.49483L8.20388 9.8455C7.82575 11.3602 7.72675 15.9868 9.73287 18.4602C10.573 19.4962 11.6826 20.0002 13.125 20.0002C14.6471 20.0002 15.8558 18.8215 15.875 17.3162C15.8942 15.8268 15.2452 14.5935 14.5577 13.2895C13.8537 11.9535 13.125 10.5735 13.125 8.89617C13.125 5.2815 15.0665 2.0055 15.149 1.86817L16.2875 -0.027832L17.4989 1.82683C18.6663 3.61217 20.2406 5.27617 21.7655 6.8855C24.9541 10.2508 28.2514 13.7335 28.2514 18.6682C28.2514 26.0202 22.0831 32.0015 14.5014 32.0015L14.5 32.0002ZM3.5 18.6668C3.5 24.5482 8.43488 29.3335 14.5 29.3335C20.5651 29.3335 25.5 24.5482 25.5 18.6668C25.5 14.7708 22.7019 11.8148 19.7388 8.68817C18.68 7.5695 17.5965 6.42684 16.6093 5.20684C16.2298 6.2375 15.875 7.5575 15.875 8.89884C15.875 9.9335 16.3989 10.9268 17.0052 12.0788C17.778 13.5428 18.6525 15.2015 18.625 17.3522C18.5879 20.2828 16.1198 22.6682 13.125 22.6682C10.8494 22.6682 8.9285 21.7828 7.57 20.1095C5.99425 18.1668 5.41262 15.4735 5.282 13.1948C4.13112 14.7508 3.5 16.4282 3.5 18.6668Z" fill="#FF453A"/>
</svg>
