<svg width="33" height="32" viewBox="0 0 33 32" fill="none" xmlns="http://www.w3.org/2000/svg">
<path d="M22 18.6667C22 19.4027 21.384 20 20.625 20H19.25C18.491 20 17.875 19.4027 17.875 18.6667C17.875 17.9307 18.491 17.3333 19.25 17.3333H20.625C21.384 17.3333 22 17.9307 22 18.6667ZM26.125 17.3333H24.75C23.991 17.3333 23.375 17.9307 23.375 18.6667C23.375 19.4027 23.991 20 24.75 20H26.125C26.884 20 27.5 19.4027 27.5 18.6667C27.5 17.9307 26.884 17.3333 26.125 17.3333ZM20.625 22.6667H19.25C18.491 22.6667 17.875 23.264 17.875 24C17.875 24.736 18.491 25.3333 19.25 25.3333H20.625C21.384 25.3333 22 24.736 22 24C22 23.264 21.384 22.6667 20.625 22.6667ZM26.125 22.6667H24.75C23.991 22.6667 23.375 23.264 23.375 24C23.375 24.736 23.991 25.3333 24.75 25.3333H26.125C26.884 25.3333 27.5 24.736 27.5 24C27.5 23.264 26.884 22.6667 26.125 22.6667ZM20.625 6.66667H19.25C18.491 6.66667 17.875 7.264 17.875 8C17.875 8.736 18.491 9.33333 19.25 9.33333H20.625C21.384 9.33333 22 8.736 22 8C22 7.264 21.384 6.66667 20.625 6.66667ZM26.125 6.66667H24.75C23.991 6.66667 23.375 7.264 23.375 8C23.375 8.736 23.991 9.33333 24.75 9.33333H26.125C26.884 9.33333 27.5 8.736 27.5 8C27.5 7.264 26.884 6.66667 26.125 6.66667ZM20.625 12H19.25C18.491 12 17.875 12.5973 17.875 13.3333C17.875 14.0693 18.491 14.6667 19.25 14.6667H20.625C21.384 14.6667 22 14.0693 22 13.3333C22 12.5973 21.384 12 20.625 12ZM26.125 12H24.75C23.991 12 23.375 12.5973 23.375 13.3333C23.375 14.0693 23.991 14.6667 24.75 14.6667H26.125C26.884 14.6667 27.5 14.0693 27.5 13.3333C27.5 12.5973 26.884 12 26.125 12ZM33 6.66667V25.3333C33 29.0093 29.9159 32 26.125 32H6.875C3.08413 32 0 29.0093 0 25.3333V12.344C0 10.5427 0.76725 8.792 2.10512 7.54267L4.70112 5.11867C6.30575 3.61867 8.81925 3.62 10.4239 5.11867L12.375 6.94133V6.66667C12.375 2.99067 15.4591 0 19.25 0H26.125C29.9159 0 33 2.99067 33 6.66667ZM12.375 12.344C12.375 11.2627 11.9144 10.2133 11.1114 9.46267L8.51538 7.03867C8.24862 6.788 7.90487 6.664 7.5625 6.664C7.22013 6.664 6.87638 6.788 6.60963 7.03867L4.01362 9.46267C3.21062 10.212 2.75 11.2627 2.75 12.344V25.3333C2.75 27.5387 4.60075 29.3333 6.875 29.3333H12.375V12.344ZM30.25 6.66667C30.25 4.46133 28.3993 2.66667 26.125 2.66667H19.25C16.9757 2.66667 15.125 4.46133 15.125 6.66667V29.3333H26.125C28.3993 29.3333 30.25 27.5387 30.25 25.3333V6.66667ZM8.25 17.3333H6.875C6.116 17.3333 5.5 17.9307 5.5 18.6667C5.5 19.4027 6.116 20 6.875 20H8.25C9.009 20 9.625 19.4027 9.625 18.6667C9.625 17.9307 9.009 17.3333 8.25 17.3333ZM8.25 12H6.875C6.116 12 5.5 12.5973 5.5 13.3333C5.5 14.0693 6.116 14.6667 6.875 14.6667H8.25C9.009 14.6667 9.625 14.0693 9.625 13.3333C9.625 12.5973 9.009 12 8.25 12ZM8.25 22.6667H6.875C6.116 22.6667 5.5 23.264 5.5 24C5.5 24.736 6.116 25.3333 6.875 25.3333H8.25C9.009 25.3333 9.625 24.736 9.625 24C9.625 23.264 9.009 22.6667 8.25 22.6667Z" fill="#999999"/>
</svg>
