<svg width="33" height="33" viewBox="0 0 33 33" fill="none" xmlns="http://www.w3.org/2000/svg">
<g clip-path="url(#clip0_578_2644)">
<path d="M33 11C33 10.8721 32.9821 10.7443 32.9478 10.6219L31.3363 4.98575C30.4975 2.05012 27.7778 0 24.7253 0H8.27338C5.22088 0 2.5025 2.05012 1.66237 4.98575L0.053625 10.6219C0.01925 10.7443 0 10.8721 0 11C0 12.3915 0.51975 13.6634 1.375 14.6341V27.5C1.375 30.5333 3.84175 33 6.875 33H15.125C18.1583 33 20.625 30.5333 20.625 27.5V15.7616C21.142 15.4619 21.6068 15.0796 22 14.6341C23.0079 15.7781 24.4832 16.5 26.125 16.5H27.5C27.9744 16.5 28.435 16.4395 28.875 16.3254V31.625C28.875 32.384 29.4896 33 30.25 33C31.0104 33 31.625 32.384 31.625 31.625V14.6341C32.4803 13.6647 33 12.3915 33 11ZM15.125 30.25H6.875C5.35838 30.25 4.125 29.0166 4.125 27.5V24.75H17.875V27.5C17.875 29.0166 16.6416 30.25 15.125 30.25ZM17.875 22H4.125V16.3254C4.565 16.4395 5.02563 16.5 5.5 16.5H6.875C8.51675 16.5 9.99075 15.7767 11 14.6341C12.0092 15.7781 13.4832 16.5 15.125 16.5H17.875V22ZM26.125 13.75C24.6084 13.75 23.375 12.5166 23.375 11C23.375 10.241 22.7604 9.625 22 9.625C21.2396 9.625 20.625 10.241 20.625 11C20.625 12.5166 19.3916 13.75 17.875 13.75H15.125C13.6084 13.75 12.375 12.5166 12.375 11C12.375 10.241 11.759 9.625 11 9.625C10.241 9.625 9.625 10.241 9.625 11C9.625 12.5166 8.39163 13.75 6.875 13.75H5.5C4.82625 13.75 4.2075 13.5052 3.729 13.1024C3.68912 13.0625 3.64788 13.0254 3.60388 12.9896C3.11713 12.5262 2.7995 11.8869 2.7555 11.1746L4.3065 5.742C4.80975 3.98063 6.4405 2.75 8.27338 2.75H9.625V5.5C9.625 6.259 10.241 6.875 11 6.875C11.759 6.875 12.375 6.259 12.375 5.5V2.75H20.625V5.5C20.625 6.259 21.2396 6.875 22 6.875C22.7604 6.875 23.375 6.259 23.375 5.5V2.75H24.7253C26.5568 2.75 28.1889 3.98063 28.6921 5.742L30.2445 11.1746C30.1551 12.6101 28.9575 13.7514 27.5 13.7514H26.125V13.75Z" fill="#999999"/>
</g>
<defs>
<clipPath id="clip0_578_2644">
<rect width="33" height="33" fill="white"/>
</clipPath>
</defs>
</svg>
