<svg width="32" height="32" viewBox="0 0 32 32" fill="none" xmlns="http://www.w3.org/2000/svg">
<path d="M30.6665 29.3332C30.1132 29.3332 29.4399 29.0572 28.7265 28.7652C27.8492 28.4065 26.8545 27.9999 25.7772 27.9999C24.6999 27.9999 23.7052 28.4065 22.8279 28.7652C22.1145 29.0572 21.4399 29.3332 20.8879 29.3332C20.3359 29.3332 19.6612 29.0572 18.9479 28.7652C18.0705 28.4065 17.0759 27.9999 15.9985 27.9999C14.9212 27.9999 13.9265 28.4065 13.0492 28.7652C12.5319 28.9772 12.0359 29.1799 11.5919 29.2759L16.5945 17.9812L26.1759 22.3492C26.6972 22.5879 27.2519 22.7065 27.8065 22.7065C28.4252 22.7065 29.0425 22.5585 29.6132 22.2652C30.6999 21.7065 31.4585 20.6932 31.6932 19.4879C33.1705 11.8945 29.5599 4.47321 22.9105 1.44121C16.0652 -1.68012 7.88387 0.474544 3.45587 6.56788C2.72387 7.57588 2.4852 8.84788 2.80387 10.0585C3.11454 11.2399 3.91987 12.2025 5.01453 12.7012L14.1679 16.8745L8.94254 28.6732C8.12253 28.3412 7.20654 27.9999 6.2212 27.9999C5.14387 27.9999 4.1492 28.4065 3.27187 28.7652C2.55854 29.0572 1.8852 29.3332 1.33187 29.3332C0.595869 29.3332 -0.00146484 29.9305 -0.00146484 30.6665C-0.00146484 31.4025 0.595869 31.9999 1.33187 31.9999C2.4092 31.9999 3.40387 31.5932 4.2812 31.2345C4.99453 30.9425 5.66787 30.6665 6.2212 30.6665C6.77454 30.6665 7.44787 30.9425 8.1612 31.2345C9.03854 31.5932 10.0332 31.9999 11.1105 31.9999C12.1879 31.9999 13.1825 31.5932 14.0599 31.2345C14.7732 30.9425 15.4465 30.6665 15.9999 30.6665C16.5532 30.6665 17.2265 30.9425 17.9399 31.2345C18.8172 31.5932 19.8119 31.9999 20.8892 31.9999C21.9665 31.9999 22.9612 31.5932 23.8385 31.2345C24.5519 30.9425 25.2265 30.6665 25.7785 30.6665C26.3305 30.6665 27.0052 30.9425 27.7185 31.2345C28.5959 31.5932 29.5905 31.9999 30.6679 31.9999C31.4039 31.9999 32.0012 31.4025 32.0012 30.6665C32.0012 29.9305 31.4025 29.3332 30.6665 29.3332ZM5.38254 9.37854C5.2692 8.94654 5.3532 8.49321 5.6132 8.13454C9.23854 3.14654 16.1999 1.31054 21.8052 3.86654C27.3279 6.38521 30.3185 12.5985 29.0772 18.9772C28.9705 19.5225 28.6039 19.7839 28.3945 19.8919C28.0425 20.0732 27.6399 20.0852 27.2839 19.9212L6.1212 10.2759C5.62387 10.0492 5.4452 9.61588 5.38254 9.37854Z" fill="#999999"/>
</svg>
