<svg width="32" height="29" viewBox="0 0 32 29" fill="none" xmlns="http://www.w3.org/2000/svg">
<path d="M25.3333 0.75H6.66667C2.99067 0.75 0 3.83413 0 7.625V26.875C0 27.6354 0.597333 28.25 1.33333 28.25C2.06933 28.25 2.66667 27.6354 2.66667 26.875V24.125H29.3333V26.875C29.3333 27.6354 29.9293 28.25 30.6667 28.25C31.404 28.25 32 27.6354 32 26.875V7.625C32 3.83413 29.0093 0.75 25.3333 0.75ZM6.66667 3.5H25.3333C27.5387 3.5 29.3333 5.35075 29.3333 7.625V15.875H26.6667C26.6667 12.8418 24.2747 10.375 21.3333 10.375H20C18.408 10.375 16.9787 11.0983 16 12.2409C15.0213 11.0969 13.592 10.375 12 10.375H10.6667C7.72533 10.375 5.33333 12.8418 5.33333 15.875H2.66667V7.625C2.66667 5.35075 4.46133 3.5 6.66667 3.5ZM17.3333 15.875C17.3333 14.3584 18.5293 13.125 20 13.125H21.3333C22.804 13.125 24 14.3584 24 15.875H17.3333ZM8 15.875C8 14.3584 9.196 13.125 10.6667 13.125H12C13.4707 13.125 14.6667 14.3584 14.6667 15.875H8ZM2.66667 21.375V18.625H29.3333V21.375H2.66667Z" fill="#999999"/>
</svg>
