<svg width="33" height="25" viewBox="0 0 33 25" fill="none" xmlns="http://www.w3.org/2000/svg">
<path d="M23.375 12.5V13.875H19.9375L17.3099 17.2039C17.0417 17.6947 16.5275 18 15.9693 18H14.4389L16.0435 13.875H13.2701L11.1444 11.3546C10.736 10.6396 11.2516 9.75 12.0752 9.75C12.3599 9.75 12.6321 9.86275 12.8329 10.0635L14.3591 11.125H16.0655L14.4375 7H15.9445C16.5041 7 17.0184 7.30525 17.2851 7.79613L19.9375 11.125H21.6562C22.759 11.125 23.375 11.741 23.375 12.5ZM28.875 12.5C28.875 14.0166 30.1084 15.25 31.625 15.25H33V20.75C33 23.0243 31.1493 24.875 28.875 24.875H4.125C1.85075 24.875 0 23.0243 0 20.75V4.25C0 1.97575 1.85075 0.125 4.125 0.125H28.875C31.1493 0.125 33 1.97575 33 4.25V9.75H31.625C30.1084 9.75 28.875 10.9834 28.875 12.5ZM26.125 12.5C26.125 9.9425 27.8795 7.78512 30.25 7.17462V4.25C30.25 3.491 29.634 2.875 28.875 2.875H8.25V5.625H5.5V2.875H4.125C3.366 2.875 2.75 3.491 2.75 4.25V20.75C2.75 21.509 3.366 22.125 4.125 22.125H5.5V19.375H8.25V22.125H28.875C29.634 22.125 30.25 21.509 30.25 20.75V17.8254C27.8795 17.2149 26.125 15.0575 26.125 12.5ZM5.5 11.125H8.25V8.375H5.5V11.125ZM5.5 16.625H8.25V13.875H5.5V16.625Z" fill="#999999"/>
</svg>
